<svg width="16" height="16" viewBox="0 0 16 16" fill="none" xmlns="http://www.w3.org/2000/svg">
<g id="Message 33">
<path id="Vector" d="M9.90243 12.5639C11.0933 10.7529 10.893 8.29422 9.30175 6.70095C7.69707 5.09424 5.21347 4.90391 3.40055 6.12995M9.90243 12.5639C9.73103 12.8246 9.5308 13.0719 9.30175 13.3012C8.24288 14.3614 5.99741 15.278 4.17497 14.1504C4.07355 14.0876 4.02284 14.0563 3.98449 14.0411C3.91118 14.012 3.85558 14.0036 3.77697 14.0097C3.73585 14.0128 3.68926 14.0249 3.59609 14.0491C3.0098 14.2013 2.71666 14.2773 2.50547 14.2343C2.13893 14.1596 1.85246 13.8728 1.77787 13.5058C1.73489 13.2943 1.81087 13.0008 1.96283 12.4138C1.98698 12.3205 1.99906 12.2738 2.00222 12.2325C2.00826 12.1538 1.99968 12.0975 1.97051 12.0241C1.9552 11.9857 1.92391 11.9352 1.86132 11.8344C0.731221 10.0136 1.60582 7.8063 2.70978 6.70095C2.92542 6.48504 3.15693 6.2947 3.40055 6.12995M9.90243 12.5639L10.0003 12.5472C10.4147 12.4476 10.8239 12.2828 11.2168 12.0396C11.34 11.9634 11.4016 11.9253 11.4481 11.9069C11.5371 11.8716 11.6047 11.8613 11.7001 11.8687C11.75 11.8726 11.8066 11.8873 11.9198 11.9166C12.6317 12.1014 12.9876 12.1938 13.2441 12.1415C13.6892 12.0508 14.037 11.7025 14.1276 11.2569C14.1798 11.0001 14.0875 10.6437 13.903 9.93089C13.8737 9.81758 13.859 9.76093 13.8552 9.71078C13.8478 9.61519 13.8582 9.54681 13.8937 9.45774C13.9123 9.41102 13.9503 9.34979 14.0263 9.22735C15.3985 7.01641 14.3365 4.33608 12.996 2.99387C10.7856 0.780691 7.20184 0.780691 4.99145 2.99387C4.10826 3.87817 3.57796 4.98201 3.40055 6.12995" stroke="#FEFEFE" stroke-width="1.5"/>
<g id="Vector_2">
<path d="M7.33366 10.0007C7.33366 10.3688 7.63214 10.6673 8.00033 10.6673C8.36852 10.6673 8.66699 10.3688 8.66699 10.0007C8.66699 9.63246 8.36852 9.33398 8.00033 9.33398C7.63214 9.33398 7.33366 9.63246 7.33366 10.0007Z" fill="#FEFEFE"/>
<path d="M5.33366 10.0007C5.33366 10.3688 5.63214 10.6673 6.00033 10.6673C6.36852 10.6673 6.66699 10.3688 6.66699 10.0007C6.66699 9.63246 6.36852 9.33398 6.00033 9.33398C5.63214 9.33398 5.33366 9.63246 5.33366 10.0007Z" fill="#FEFEFE"/>
<path d="M3.33366 10.0007C3.33366 10.3688 3.63214 10.6673 4.00033 10.6673C4.36852 10.6673 4.66699 10.3688 4.66699 10.0007C4.66699 9.63246 4.36852 9.33398 4.00033 9.33398C3.63214 9.33398 3.33366 9.63246 3.33366 10.0007Z" fill="#FEFEFE"/>
</g>
</g>
</svg>
