<svg width="12" height="15" viewBox="0 0 12 15" fill="none" xmlns="http://www.w3.org/2000/svg">
<g id="Profile 1">
<path id="Vector" d="M7.91683 3.99967C7.91683 5.05822 7.05871 5.91634 6.00016 5.91634V7.41634C7.88714 7.41634 9.41683 5.88665 9.41683 3.99967H7.91683ZM6.00016 5.91634C4.94162 5.91634 4.0835 5.05822 4.0835 3.99967H2.5835C2.5835 5.88665 4.11319 7.41634 6.00016 7.41634V5.91634ZM4.0835 3.99967C4.0835 2.94113 4.94162 2.08301 6.00016 2.08301V0.583008C4.11319 0.583008 2.5835 2.1127 2.5835 3.99967H4.0835ZM6.00016 2.08301C7.05871 2.08301 7.91683 2.94113 7.91683 3.99967H9.41683C9.41683 2.1127 7.88714 0.583008 6.00016 0.583008V2.08301ZM4.00016 9.41634H8.00016V7.91634H4.00016V9.41634ZM8.00016 13.2497H4.00016V14.7497H8.00016V13.2497ZM4.00016 13.2497C2.94162 13.2497 2.0835 12.3916 2.0835 11.333H0.583496C0.583496 13.22 2.11319 14.7497 4.00016 14.7497V13.2497ZM9.91683 11.333C9.91683 12.3916 9.05871 13.2497 8.00016 13.2497V14.7497C9.88714 14.7497 11.4168 13.22 11.4168 11.333H9.91683ZM8.00016 9.41634C9.05871 9.41634 9.91683 10.2745 9.91683 11.333H11.4168C11.4168 9.44604 9.88714 7.91634 8.00016 7.91634V9.41634ZM4.00016 7.91634C2.11319 7.91634 0.583496 9.44604 0.583496 11.333H2.0835C2.0835 10.2745 2.94162 9.41634 4.00016 9.41634V7.91634Z" fill="#FEFEFE"/>
</g>
</svg>
