<svg width="277" height="64" viewBox="0 0 277 64" fill="none" xmlns="http://www.w3.org/2000/svg">
<g opacity="0.3">
<path d="M-3 8.70842C-3 8.70842 0.419191 6.14403 1.40063 1.96502C2.38206 -2.21399 6.02286 -5 6.02286 -5" stroke="#1A4D2E" stroke-width="0.633183" stroke-miterlimit="10"/>
<path d="M-3 20.1057C-3 20.1057 8.7139 16.4966 11.8165 7.4104C14.7925 -1.42251 26.8229 -5 26.8229 -5" stroke="#1A4D2E" stroke-width="0.633183" stroke-miterlimit="10"/>
<path d="M-3 31.503C-3 31.503 17.0086 26.8491 22.2007 12.8874C27.2029 -0.567716 47.623 -5 47.623 -5" stroke="#1A4D2E" stroke-width="0.633183" stroke-miterlimit="10"/>
<path d="M-3 42.932C-3 42.932 25.2716 37.2017 32.6166 18.3645C39.6133 0.255424 68.3914 -5 68.3914 -5" stroke="#1A4D2E" stroke-width="0.633183" stroke-miterlimit="10"/>
<path d="M-3 54.3293C-3 54.3293 33.5663 47.5542 43.0008 23.8415C52.0236 1.11022 89.1915 -5 89.1915 -5" stroke="#1A4D2E" stroke-width="0.633183" stroke-miterlimit="10"/>
<path d="M-3 65.7266C-3 65.7266 41.861 57.9068 53.4166 29.2869C64.434 1.96502 109.992 -5 109.992 -5" stroke="#1A4D2E" stroke-width="0.633183" stroke-miterlimit="10"/>
<path d="M-3 77.1556C-3 77.1556 50.1241 68.2593 63.8009 34.7956C76.8444 2.78816 130.792 -5 130.792 -5" stroke="#1A4D2E" stroke-width="0.633183" stroke-miterlimit="10"/>
<path d="M-3 88.5529C-3 88.5529 58.4188 78.6119 74.2167 40.241C89.2548 3.64295 151.592 -5 151.592 -5" stroke="#1A4D2E" stroke-width="0.633183" stroke-miterlimit="10"/>
<path d="M-3 99.9502C-3 99.9502 66.7135 88.9644 84.6326 45.718C101.665 4.49775 172.36 -5 172.36 -5" stroke="#1A4D2E" stroke-width="0.633183" stroke-miterlimit="10"/>
<path d="M-3 111.379C-3 111.379 74.9766 99.3486 95.0168 51.195C114.107 5.32089 193.16 -5 193.16 -5" stroke="#1A4D2E" stroke-width="0.633183" stroke-miterlimit="10"/>
<path d="M-3 122.776C-3 122.776 83.2712 109.67 105.433 56.6721C126.518 6.17569 213.96 -5 213.96 -5" stroke="#1A4D2E" stroke-width="0.633183" stroke-miterlimit="10"/>
<path d="M-3 134.174C-3 134.174 91.5659 120.022 115.817 62.1174C138.928 7.03049 234.76 -5 234.76 -5" stroke="#1A4D2E" stroke-width="0.633183" stroke-miterlimit="10"/>
<path d="M-3 145.603C-3 145.603 99.829 130.406 126.233 67.6261C151.338 7.85362 255.529 -5 255.529 -5" stroke="#1A4D2E" stroke-width="0.633183" stroke-miterlimit="10"/>
<path d="M-3 157C-3 157 108.124 140.759 136.617 73.1032C163.749 8.70842 276.329 -5 276.329 -5" stroke="#1A4D2E" stroke-width="0.633183" stroke-miterlimit="10"/>
</g>
</svg>
