<svg width="21" height="20" viewBox="0 0 21 20" fill="none" xmlns="http://www.w3.org/2000/svg">
<g id="vuesax/linear/video-square">
<g id="video-square">
<path id="Vector" d="M8.00008 18.3337H13.0001C17.1667 18.3337 18.8334 16.667 18.8334 12.5003V7.50033C18.8334 3.33366 17.1667 1.66699 13.0001 1.66699H8.00008C3.83341 1.66699 2.16675 3.33366 2.16675 7.50033V12.5003C2.16675 16.667 3.83341 18.3337 8.00008 18.3337Z" stroke="#0C1424" stroke-linecap="round" stroke-linejoin="round"/>
<path id="Vector_2" d="M8.0835 10.0002V8.7669C8.0835 7.17524 9.2085 6.53357 10.5835 7.32524L11.6502 7.9419L12.7168 8.55857C14.0918 9.35024 14.0918 10.6502 12.7168 11.4419L11.6502 12.0586L10.5835 12.6752C9.2085 13.4669 8.0835 12.8169 8.0835 11.2336V10.0002Z" stroke="#0C1424" stroke-miterlimit="10" stroke-linecap="round" stroke-linejoin="round"/>
</g>
</g>
</svg>
